<?xml version="1.0" encoding="iso-8859-1"?>
<!-- Uploaded to: SVG Repo, www.svgrepo.com, Generator: SVG Repo Mixer Tools -->
<svg fill="#000000" height="800px" width="800px" version="1.1" id="Layer_1" xmlns="http://www.w3.org/2000/svg" xmlns:xlink="http://www.w3.org/1999/xlink" 
	 viewBox="0 0 512 512" xml:space="preserve">
<g>
	<g>
		<path d="M445.204,309.744c-0.062-0.243-0.125-0.487-0.189-0.729c-1.494-5.575-7.219-8.883-12.797-7.391
			c-5.575,1.493-8.883,7.222-7.391,12.797l0.103,0.393c1.186,4.748,5.447,7.916,10.128,7.916c0.839,0,1.692-0.1,2.543-0.314
			C443.2,321.016,446.604,315.342,445.204,309.744z"/>
	</g>
</g>
<g>
	<g>
		<path d="M436.462,337.356c-5.293-2.295-11.447,0.14-13.74,5.435c-6.883,15.889-22.516,26.155-39.827,26.156
			c-23.918,0-43.376-19.459-43.377-43.377c0-5.771-4.679-10.449-10.449-10.449c-5.771,0-10.449,4.678-10.449,10.449
			c0.001,35.441,28.835,64.275,64.275,64.275c25.648-0.001,48.808-15.211,59.002-38.748
			C444.19,345.802,441.758,339.65,436.462,337.356z"/>
	</g>
</g>
<g>
	<g>
		<path d="M382.434,196.59c-4.886,0-9.773,0.284-14.629,0.833v-11.974c3.12-0.081,6.246-0.124,9.358-0.124
			c28.806,0,57.951,3.455,86.64,10.271c1.192,0.282,2.416,0.424,3.636,0.424c7.383,0,13.719-5.032,15.406-12.234
			c1.995-8.502-3.281-17.055-11.756-19.065c-31.132-7.398-62.748-11.149-93.972-11.149c-3.097,0-6.207,0.042-9.313,0.116V82.399
			c0-14.404-11.719-26.122-26.122-26.122h-65.829c-14.404,0-26.122,11.719-26.122,26.122s11.719,26.122,26.122,26.122h39.706v50.053
			c-33.472,5.517-65.254,15.508-94.584,29.773c-18.194,8.849-34.989,19.128-50.287,30.748V193.72h30.992
			c9.57,0,17.357-7.787,17.357-17.357v-23.848c0-9.57-7.787-17.357-17.357-17.357h-82.881c-9.57,0-17.357,7.787-17.357,17.357
			v23.848c0,9.57,7.787,17.357,17.357,17.357h30.992v42.962c-7.05,6.567-13.702,13.468-19.93,20.703
			c-3.586,4.165-6.989,8.422-10.247,12.747c-8.135-2.302-16.711-3.535-25.572-3.535C42.187,266.597,0,308.784,0,360.638
			c0,51.854,42.187,94.041,94.041,94.041c51.854,0,94.041-42.187,94.041-94.041c0-31.397-15.47-59.245-39.183-76.335
			c37.636-47.03,96.592-80.951,166.66-93.553v24.434c-38.821,23.413-62.694,65.358-62.694,110.972
			c0,71.444,58.123,129.567,129.567,129.567S512,397.6,512,326.156S453.878,196.59,382.434,196.59z M121.433,329.109
			c8.816,7.669,14.404,18.956,14.404,31.529c0,23.047-18.75,41.797-41.796,41.797s-41.796-18.75-41.796-41.797
			c0-22.104,17.251-40.245,38.994-41.691c-5.223,12.202-9.395,24.835-12.451,37.871c-1.993,8.497,3.281,17.05,11.775,19.07
			c1.195,0.282,2.419,0.424,3.637,0.424c7.381,0,13.715-5.032,15.403-12.235C112.432,352.008,116.414,340.33,121.433,329.109z
			 M167.185,360.639c0,40.331-32.812,73.143-73.143,73.143c-40.331,0-73.143-32.812-73.143-73.143
			c0-40.331,32.812-73.143,73.143-73.143c4.411,0,8.723,0.414,12.92,1.165c-1.975,3.204-3.887,6.435-5.695,9.712
			c-2.373-0.274-4.78-0.429-7.225-0.429c-34.569,0-62.694,28.125-62.694,62.695s28.125,62.695,62.694,62.695
			s62.694-28.124,62.694-62.695c0-20.69-10.078-39.063-25.578-50.487c1.75-3.011,3.575-5.985,5.482-8.913
			C155.117,314.526,167.185,336.193,167.185,360.639z M122.34,172.824v-16.766h75.8v16.766H122.34z M382.435,360.691
			c19.042,0,34.534-15.492,34.534-34.534c0-17.416-12.962-31.855-29.746-34.194l-19.417-24.124v-12.426
			c4.798-0.988,9.693-1.499,14.629-1.499c39.834,0,72.241,32.408,72.241,72.242c0,39.834-32.408,72.241-72.241,72.241
			c-39.833,0-72.24-32.408-72.24-72.241c0-12.677,3.209-24.777,9.253-35.45c0.576,0.94,1.192,1.857,1.887,2.721l26.575,33.017
			C348.063,345.354,363.489,360.691,382.435,360.691z M368.798,326.157c0-7.519,6.118-13.636,13.636-13.636
			c7.518,0,13.636,6.117,13.636,13.636c0,7.519-6.117,13.636-13.636,13.636C374.915,339.793,368.798,333.676,368.798,326.157z
			 M292.572,87.624h-16.718c-2.881,0-5.224-2.344-5.224-5.224s2.344-5.224,5.224-5.224h16.718V87.624z M313.47,87.624V77.175h28.212
			c2.881,0,5.224,2.344,5.224,5.224v189.122c0,2.383,0.814,4.695,2.309,6.553l15.067,18.72c-2.983,1.852-5.661,4.145-7.95,6.787
			l-18.72-23.258c-0.745-0.926-1.155-2.089-1.155-3.277V98.073c0-5.77-4.679-10.449-10.449-10.449H313.47z M382.434,434.826
			c-59.921,0-108.669-48.749-108.669-108.669c0-33.834,15.651-65.27,41.796-85.673v20.876
			c-16.745,17.304-26.265,40.661-26.265,64.798c0,51.357,41.781,93.139,93.138,93.139c51.357,0,93.139-41.781,93.139-93.139
			s-41.782-93.141-93.139-93.141c-4.916,0-9.805,0.385-14.629,1.15V218.47c4.844-0.653,9.737-0.982,14.629-0.982
			c59.921,0,108.669,48.749,108.669,108.669S442.354,434.826,382.434,434.826z"/>
	</g>
</g>
</svg>